<svg width="103" height="32" viewBox="0 0 103 32" fill="none" xmlns="http://www.w3.org/2000/svg">
  <g clip-path="url(#clip0_2_416)">
    <path d="M29.5262 22.6792C29.3646 22.2892 29.2132 21.8792 29.0516 21.5292L28.3043 19.8592L28.274 19.8292C26.0525 15.0292 23.6794 10.1492 21.165 5.34921L21.064 5.14921C20.8116 4.67921 20.5591 4.15921 20.2966 3.67921C19.9734 3.10921 19.6604 2.49921 19.1454 1.91921C18.6434 1.31234 18.0116 0.8234 17.2957 0.487667C16.5797 0.151934 15.7974 -0.0222168 15.0052 -0.0222168C14.213 -0.0222168 13.4307 0.151934 12.7148 0.487667C11.9988 0.8234 11.367 1.31234 10.865 1.91921C10.3904 2.49921 10.037 3.10921 9.71383 3.67921C9.46138 4.19921 9.20893 4.70921 8.94638 5.17921L8.8454 5.37921C6.37138 10.1792 3.95795 15.0592 1.73638 19.8592L1.6758 19.9192C1.45364 20.4392 1.19109 20.9792 0.938639 21.5592C0.77707 21.9092 0.615502 22.2892 0.453933 22.7092C0.0177306 23.809 -0.121563 25.0024 0.0497814 26.1717C0.221125 27.341 0.697192 28.446 1.43106 29.3776C2.16494 30.3093 3.13128 31.0355 4.23487 31.4847C5.33845 31.9338 6.54118 32.0905 7.72452 31.9392C8.859 31.7913 9.95142 31.4171 10.9357 30.8392C12.2484 30.1092 13.5107 29.0492 14.9244 27.5192C16.3381 29.0492 17.6307 30.1092 18.9131 30.8492C20.1464 31.5661 21.543 31.9617 22.9726 31.9992C24.628 32.006 26.23 31.4195 27.4828 30.3479C28.7357 29.2764 29.5547 27.7921 29.7887 26.1692C30.0592 25.003 29.9677 23.7831 29.5262 22.6692V22.6792ZM15.0254 24.3392C13.2885 22.1392 12.1576 20.1192 11.7738 18.3892C11.6149 17.7481 11.5806 17.083 11.6729 16.4292C11.7435 15.9192 11.9354 15.4692 12.198 15.0892C12.8038 14.2192 13.8641 13.6792 15.0254 13.6792C15.5769 13.6625 16.1239 13.7817 16.6174 14.0261C17.1109 14.2704 17.5354 14.6323 17.8529 15.0792C18.1154 15.4792 18.3073 15.9192 18.3679 16.4292C18.4688 17.0092 18.4284 17.6792 18.2669 18.3892C17.8832 20.0892 16.7522 22.1292 15.0254 24.3392ZM27.8903 25.8192C27.7756 26.6432 27.4448 27.423 26.931 28.0809C26.4172 28.7389 25.7383 29.252 24.9619 29.5692C24.1944 29.8892 23.3462 29.9792 22.5181 29.8892C21.7103 29.7892 20.9025 29.5292 20.0744 29.0492C18.6996 28.2077 17.4633 27.1622 16.4088 25.9492C18.5294 23.3492 19.8119 20.9792 20.2966 18.8692C20.5288 17.8692 20.5591 16.9692 20.4581 16.1392C20.3321 15.3525 20.0358 14.602 19.5897 13.9392C19.0804 13.2205 18.4005 12.6367 17.6099 12.2391C16.8193 11.8415 15.9422 11.6424 15.0557 11.6592C13.1876 11.6592 11.5214 12.5192 10.5116 13.9292C10.057 14.5904 9.76322 15.3468 9.65325 16.1392C9.52197 16.9792 9.55227 17.9092 9.81482 18.8692C10.2995 20.9792 11.6123 23.3792 13.7026 25.9692C12.666 27.2054 11.4268 28.2601 10.037 29.0892C9.19883 29.5692 8.40109 29.8192 7.59325 29.9192C6.33693 30.0786 5.06788 29.7404 4.06192 28.9783C3.05597 28.2162 2.39443 27.0917 2.22109 25.8492C2.12011 25.0492 2.1908 24.2492 2.51393 23.3492C2.61491 23.0292 2.76638 22.7092 2.92795 22.3292C3.15011 21.8092 3.41266 21.2692 3.66511 20.7292L3.7055 20.6592C5.88668 15.8892 8.26982 11.0192 10.7438 6.24921L10.8448 6.04921C11.0973 5.56921 11.3497 5.05921 11.6123 4.57921C11.8748 4.06921 12.1576 3.57921 12.5211 3.17921C12.8358 2.80723 13.2289 2.50808 13.673 2.30283C14.117 2.09757 14.601 1.9912 15.091 1.9912C15.5811 1.9912 16.0651 2.09757 16.5091 2.30283C16.9531 2.50808 17.3463 2.80723 17.661 3.17921C18.0144 3.57921 18.3073 4.06921 18.5698 4.57921C18.8223 5.05921 19.0747 5.57921 19.3373 6.04921L19.4382 6.24921C21.9022 11.0192 24.2853 15.8892 26.5069 20.6592L26.5372 20.6892C26.7997 21.2092 27.0219 21.7892 27.2743 22.2892C27.4359 22.6792 27.5975 22.9892 27.6984 23.3192C27.8903 24.2192 27.9913 25.0192 27.8903 25.8192ZM41.9468 24.1192C41.1858 24.1302 40.4322 23.9715 39.7417 23.6547C39.0512 23.3379 38.4416 22.8712 37.958 22.2892C36.8716 21.0492 36.2949 19.4503 36.3424 17.8092C36.3257 16.1324 36.921 14.5061 38.0186 13.2292C38.5264 12.6398 39.1584 12.1678 39.8702 11.8465C40.582 11.5251 41.3564 11.3622 42.1386 11.3692C42.8747 11.3493 43.6038 11.515 44.2574 11.8509C44.911 12.1868 45.4676 12.6817 45.8749 13.2892L45.9759 11.7192H48.9245V23.7992H45.9658L45.8648 22.0392C45.4449 22.6879 44.8645 23.2195 44.1788 23.5835C43.493 23.9476 42.7247 24.132 41.9468 24.1192ZM42.7142 21.2392C43.2999 21.2392 43.8149 21.0792 44.2996 20.7892C44.7439 20.4692 45.1075 20.0492 45.3902 19.5392C45.6427 19.0292 45.7739 18.4192 45.7739 17.7392C45.8133 17.1486 45.6972 16.558 45.437 16.0251C45.1768 15.4923 44.7814 15.0354 44.2895 14.6992C43.8169 14.4076 43.2711 14.253 42.7142 14.253C42.1573 14.253 41.6116 14.4076 41.1389 14.6992C40.6946 15.0192 40.3311 15.4392 40.0483 15.9492C39.7813 16.5117 39.6499 17.1279 39.6646 17.7492C39.6253 18.3398 39.7413 18.9304 40.0015 19.4633C40.2617 19.9962 40.6571 20.453 41.149 20.7892C41.6236 21.0792 42.1386 21.2392 42.7142 21.2392ZM53.9735 8.45921C53.9735 8.80921 53.9129 9.12921 53.7514 9.38921C53.5898 9.63921 53.3677 9.86921 53.0748 10.0292C52.782 10.1892 52.4689 10.2492 52.1458 10.2492C51.8227 10.2492 51.4995 10.1892 51.2067 10.0292C50.9297 9.87652 50.6968 9.65621 50.5301 9.38921C50.3737 9.10434 50.297 8.78327 50.3079 8.45921C50.3079 8.09921 50.3786 7.77921 50.5301 7.52921C50.6917 7.22921 50.9239 7.04921 51.2067 6.88921C51.4995 6.72921 51.8126 6.65921 52.1458 6.65921C52.4672 6.65188 52.7851 6.72727 53.0683 6.87801C53.3515 7.02875 53.5903 7.24968 53.7615 7.51921C53.9084 7.81076 53.9812 8.13345 53.9735 8.45921ZM50.5402 23.7592V11.6992H53.7514V23.7792H50.5301L50.5402 23.7592ZM62.3347 14.8592V14.8992C62.1832 14.8292 61.9813 14.7992 61.8298 14.7692C61.6278 14.7292 61.4663 14.7292 61.2744 14.7292C60.3757 14.7292 59.6991 14.9892 59.2548 15.5292C58.7701 16.0792 58.548 16.8492 58.548 17.8392V23.7692H55.3267V11.6892H58.2854L58.3864 13.5192C58.7095 12.8792 59.0932 12.3992 59.6385 12.0392C60.1809 11.6894 60.8195 11.5147 61.4663 11.5392C61.6985 11.5392 61.9207 11.5592 62.1126 11.5992C62.2135 11.6292 62.2741 11.6292 62.3347 11.6592V14.8592ZM63.6273 23.7592V6.73921H66.8384V13.2392C67.2929 12.6592 67.8079 12.2092 68.4541 11.8592C69.4773 11.3624 70.6395 11.2215 71.7535 11.4592C72.8674 11.6969 73.868 12.2993 74.5937 13.1692C75.6826 14.4118 76.2594 16.0147 76.2094 17.6592C76.2261 19.336 75.6308 20.9624 74.5331 22.2392C74.0254 22.8286 73.3934 23.3006 72.6816 23.6219C71.9697 23.9433 71.1954 24.1062 70.4132 24.0992C69.6771 24.1192 68.948 23.9534 68.2944 23.6175C67.6408 23.2817 67.0842 22.7867 66.6769 22.1792L66.5759 23.7492L63.6273 23.7792V23.7592ZM69.8376 21.2392C70.4132 21.2392 70.9282 21.0792 71.4129 20.7892C71.8572 20.4692 72.2207 20.0492 72.5034 19.5392C72.766 19.0292 72.8872 18.4192 72.8872 17.7392C72.8872 17.0692 72.766 16.4592 72.5034 15.9492C72.2383 15.4574 71.8657 15.0304 71.4129 14.6992C70.9402 14.4076 70.3945 14.253 69.8376 14.253C69.2807 14.253 68.7349 14.4076 68.2623 14.6992C67.8079 15.0192 67.4544 15.4392 67.1616 15.9492C66.8945 16.5117 66.7632 17.1279 66.7779 17.7492C66.7385 18.3398 66.8546 18.9304 67.1148 19.4633C67.375 19.9962 67.7703 20.453 68.2623 20.7892C68.7369 21.0792 69.2519 21.2392 69.8376 21.2392ZM77.4212 23.7692V11.6892H80.3799L80.4809 13.2592C80.8527 12.6574 81.3801 12.1649 82.0086 11.8326C82.6371 11.5003 83.3438 11.3403 84.0556 11.3692C84.8696 11.3553 85.6697 11.5793 86.3558 12.0133C87.0419 12.4473 87.5835 13.072 87.913 13.8092C88.2665 14.5692 88.4583 15.5092 88.4583 16.5592V23.7992H85.2371V16.9792C85.2371 16.1392 85.0452 15.4792 84.6615 14.9892C84.2778 14.5092 83.7527 14.2492 83.0862 14.2492C82.6015 14.2492 82.1774 14.3492 81.8037 14.5692C81.4503 14.7992 81.1575 15.0892 80.9353 15.4992C80.7107 15.9137 80.5993 16.379 80.6122 16.8492V23.7692H77.4212ZM90.0639 23.7692V6.72921H93.2852V13.2292C93.7215 12.646 94.2891 12.1715 94.9429 11.8434C95.5968 11.5153 96.3188 11.3427 97.0518 11.3392C97.8127 11.3282 98.5664 11.487 99.2569 11.8038C99.9474 12.1206 100.557 12.5872 101.04 13.1692C102.122 14.4117 102.694 16.0098 102.646 17.6492C102.664 19.3262 102.068 20.9528 100.97 22.2292C100.462 22.8186 99.8301 23.2906 99.1182 23.6119C98.4064 23.9333 97.6321 24.0962 96.8498 24.0892C96.1137 24.1092 95.3846 23.9434 94.731 23.6075C94.0774 23.2717 93.5208 22.7767 93.1135 22.1692L93.0227 23.7392L90.0639 23.7692ZM96.3045 21.2392C96.8902 21.2392 97.4052 21.0792 97.8798 20.7892C98.3342 20.4692 98.6877 20.0492 98.9805 19.5392C99.2329 19.0292 99.3642 18.4192 99.3642 17.7392C99.4036 17.1486 99.2875 16.558 99.0273 16.0251C98.7671 15.4923 98.3717 15.0354 97.8798 14.6992C97.4072 14.4076 96.8614 14.253 96.3045 14.253C95.7476 14.253 95.2019 14.4076 94.7292 14.6992C94.2849 15.0192 93.9214 15.4392 93.6386 15.9492C93.3568 16.5066 93.2246 17.1265 93.2549 17.7492C93.2155 18.3398 93.3316 18.9304 93.5918 19.4633C93.852 19.9962 94.2474 20.453 94.7393 20.7892C95.2139 21.0792 95.6986 21.2392 96.3045 21.2392Z" fill="white"/>
  </g>
  <defs>
    <clipPath id="clip0_2_416">
      <rect width="103" height="32" fill="white"/>
    </clipPath>
  </defs>
</svg>
