<svg width="46" height="46" viewBox="0 0 46 46" fill="none" xmlns="http://www.w3.org/2000/svg">
  <path fill-rule="evenodd" clip-rule="evenodd" d="M20.8628 0.97317C16.5145 1.3989 12.4956 3.00084 8.9719 5.71289C7.25594 7.03356 5.02752 9.51557 3.73973 11.5403C3.18357 12.4147 2.10094 14.6305 1.7131 15.6879C1.27947 16.8704 0.817294 18.6774 0.589862 20.0795C0.311517 21.7956 0.311517 25.0539 0.589862 26.77C0.98342 29.196 1.606 31.1573 2.67163 33.3285C3.83592 35.7006 5.04654 37.382 6.98518 39.3196C8.9239 41.2571 10.6063 42.4671 12.9797 43.6307C15.1522 44.6957 17.1145 45.3179 19.5419 45.7113C21.259 45.9895 24.5192 45.9895 26.2363 45.7113C28.6637 45.3179 30.626 44.6957 32.7985 43.6307C35.1719 42.4671 36.8543 41.2571 38.7931 39.3196C40.7317 37.382 41.9423 35.7006 43.1066 33.3285C43.8799 31.7529 44.2689 30.7203 44.6855 29.1368C45.2403 27.0281 45.3811 25.8721 45.3811 23.4248C45.3811 20.9774 45.2403 19.8215 44.6855 17.7127C44.2689 16.1293 43.8799 15.0966 43.1066 13.521C41.9423 11.1489 40.7317 9.46751 38.7931 7.52989C36.8543 5.59237 35.1719 4.38244 32.7985 3.21881C30.6281 2.15475 28.627 1.51994 26.2803 1.151C24.9856 0.947464 22.0945 0.852564 20.8628 0.97317ZM25.3555 3.62632C27.4385 3.89676 29.715 4.56836 31.5292 5.44773C33.6388 6.47015 35.2955 7.65208 36.9831 9.3388C40.1899 12.5437 42.069 16.3806 42.7176 21.0479C42.8517 22.0125 42.8517 24.837 42.7176 25.8017C42.1992 29.5324 40.9195 32.6578 38.7167 35.5734C37.9063 36.6459 36.1178 38.4334 35.0447 39.2433C32.1274 41.4448 29.0003 42.7238 25.2674 43.2419C24.8556 43.2991 23.7854 43.3458 22.8891 43.3458C20.5314 43.3458 18.8292 43.0761 16.6273 42.3534C13.6284 41.3692 11.0778 39.7921 8.79512 37.5107C5.58835 34.3058 3.70926 30.4689 3.06061 25.8017C2.92655 24.837 2.92655 22.0125 3.06061 21.0479C3.57907 17.3171 4.85875 14.1917 7.06154 11.2762C7.87191 10.2036 9.66045 8.41613 10.7336 7.60622C13.9806 5.15581 17.6761 3.77624 21.744 3.49594C22.4375 3.44814 24.5788 3.52543 25.3555 3.62632ZM15.7543 12.4365C15.4 12.6752 15.1374 13.1381 15.1393 13.521C15.1412 13.9004 15.4841 14.4445 15.841 14.6343C16.6797 15.0803 17.6922 14.4596 17.6922 13.4995C17.6922 12.7887 17.2468 12.3238 16.5092 12.2646C16.1479 12.2356 16.0038 12.2685 15.7543 12.4365ZM15.8136 18.4164C15.5843 18.5373 15.423 18.7119 15.3091 18.9627C15.1503 19.3122 15.1415 19.6179 15.1399 24.8773C15.1382 29.9841 15.1503 30.4477 15.2921 30.7298C15.7331 31.6071 17.0039 31.6918 17.5075 30.8773C17.6901 30.5821 17.6922 30.5129 17.6922 24.8579V19.1372L17.4922 18.838C17.1051 18.2588 16.4327 18.0899 15.8136 18.4164ZM22.0979 18.3937C21.9306 18.4834 21.7132 18.6645 21.6147 18.7963C21.4397 19.0306 21.4352 19.1624 21.4118 24.7288C21.3945 28.8531 21.4157 30.4888 21.4888 30.6651C21.5442 30.7989 21.7248 31.0271 21.8901 31.1721C22.146 31.3967 22.2625 31.4358 22.6754 31.4358C23.1178 31.4358 23.1927 31.4055 23.5312 31.0902L23.9021 30.7445L23.9527 27.7229C23.9955 25.1702 24.0266 24.6402 24.1537 24.308C24.7386 22.7789 26.051 21.8384 27.5956 21.8411C28.9851 21.8436 30.2353 22.6483 30.8437 23.9317L31.1249 24.5252L31.169 27.7101C31.2111 30.7531 31.2211 30.9058 31.3947 31.138C31.7208 31.5743 32.0141 31.7338 32.4902 31.7338C32.9667 31.7338 33.2601 31.5741 33.5858 31.1375C33.7615 30.9021 33.7674 30.79 33.7658 27.7097C33.7641 24.6614 33.7555 24.4949 33.5628 23.8173C33.253 22.7271 32.76 21.9131 31.8834 21.0449C30.6596 19.8326 29.3187 19.2792 27.6056 19.2792C26.5366 19.2792 25.7136 19.4753 24.776 19.9534C24.3552 20.168 23.9963 20.3436 23.9785 20.3436C23.9607 20.3436 23.9461 20.0722 23.9461 19.7404C23.9461 19.2598 23.9055 19.0763 23.7462 18.838C23.3677 18.2717 22.6742 18.0848 22.0979 18.3937Z" fill="white"/>
</svg>
