<svg width="18" height="18" viewBox="0 0 18 18" fill="none" xmlns="http://www.w3.org/2000/svg">
  <g clip-path="url(#clip0_2_473)">
    <path d="M13.1072 0.235352H5.21631C2.64813 0.235352 0.558838 2.32465 0.558838 4.89282V12.7839C0.558838 15.3519 2.64813 17.4412 5.21631 17.4412H13.1074C15.6754 17.4412 17.7647 15.3519 17.7647 12.7839V4.89282C17.7647 2.32465 15.6754 0.235352 13.1072 0.235352V0.235352ZM16.756 12.7839C16.756 14.7957 15.1192 16.4325 13.1072 16.4325H5.21631C3.20433 16.4325 1.56752 14.7957 1.56752 12.7839V4.89282C1.56752 2.88084 3.20433 1.24403 5.21631 1.24403H13.1074C15.1192 1.24403 16.756 2.88084 16.756 4.89282V12.7839Z" fill="black"/>
    <path d="M9.16178 4.13379C6.56761 4.13379 4.45718 6.24422 4.45718 8.83838C4.45718 11.4325 6.56761 13.543 9.16178 13.543C11.7559 13.543 13.8664 11.4325 13.8664 8.83838C13.8664 6.24422 11.7559 4.13379 9.16178 4.13379V4.13379ZM9.16178 12.5343C7.12394 12.5343 5.46586 10.8764 5.46586 8.83838C5.46586 6.80054 7.12394 5.14247 9.16178 5.14247C11.1997 5.14247 12.8577 6.80054 12.8577 8.83838C12.8577 10.8764 11.1997 12.5343 9.16178 12.5343V12.5343Z" fill="black"/>
    <path d="M13.9789 2.46289C13.2122 2.46289 12.5887 3.08656 12.5887 3.85304C12.5887 4.61966 13.2122 5.24332 13.9789 5.24332C14.7455 5.24332 15.3691 4.61966 15.3691 3.85304C15.3691 3.08642 14.7455 2.46289 13.9789 2.46289ZM13.9789 4.23451C13.7686 4.23451 13.5974 4.06334 13.5974 3.85304C13.5974 3.64262 13.7686 3.47157 13.9789 3.47157C14.1893 3.47157 14.3605 3.64262 14.3605 3.85304C14.3605 4.06334 14.1893 4.23451 13.9789 4.23451Z" fill="black"/>
  </g>
  <defs>
    <clipPath id="clip0_2_473">
      <rect width="17.2059" height="17.2059" fill="white" transform="translate(0.558838 0.235352)"/>
    </clipPath>
  </defs>
</svg>
