<svg width="16" height="16" viewBox="0 0 16 16" fill="none" xmlns="http://www.w3.org/2000/svg">
  <g clip-path="url(#clip0_2_487)">
    <path d="M15.114 15.1176V15.117H15.1177V9.77757C15.1177 7.16547 14.5553 5.15332 11.5016 5.15332C10.0336 5.15332 9.04844 5.95891 8.64625 6.72264H8.60379V5.39718H5.7084V15.117H8.72329V10.3041C8.72329 9.03689 8.96352 7.81152 10.5328 7.81152C12.0791 7.81152 12.1022 9.2577 12.1022 10.3854V15.1176H15.114Z" fill="black"/>
    <path d="M0.799042 5.39746H3.81757V15.1173H0.799042V5.39746Z" fill="black"/>
    <path d="M2.30711 0.558594C1.34198 0.558594 0.558838 1.34174 0.558838 2.30687C0.558838 3.27199 1.34198 4.07152 2.30711 4.07152C3.27224 4.07152 4.05538 3.27199 4.05538 2.30687C4.05478 1.34174 3.27163 0.558594 2.30711 0.558594V0.558594Z" fill="black"/>
  </g>
  <defs>
    <clipPath id="clip0_2_487">
      <rect width="14.5588" height="14.5588" fill="white" transform="translate(0.558838 0.558594)"/>
    </clipPath>
  </defs>
</svg>
