<svg width="379" height="69" viewBox="0 0 379 69" fill="none" xmlns="http://www.w3.org/2000/svg">
  <path d="M133.779 39.7419L131.52 45.1977H131.332C130.956 43.9675 130.266 42.0954 129.136 39.8489L117.026 13.907H105.166V55.2536H113.01V29.7396C113.01 28.1349 113.01 26.3163 112.947 24.0698C112.884 22.9466 112.759 22.0908 112.696 21.4489H112.884C113.261 23.0535 113.7 24.2303 114.014 24.9791L128.571 55.1466H134.093L148.525 24.7117C148.839 24.0163 149.153 22.6256 149.467 21.4489H149.655C149.467 24.4977 149.341 27.2256 149.278 28.8838V55.0931H157.624V13.8001H146.204L133.779 39.7419ZM165.53 25.4605H173.687V55.0931H165.53V25.4605ZM169.671 12.9442C168.291 12.9442 167.162 13.3722 166.22 14.121C165.279 14.8698 164.777 15.8326 164.777 17.0094C164.777 18.1326 165.279 19.0954 166.22 19.8442C167.162 20.5931 168.291 20.9675 169.671 20.9675C171.052 20.9675 172.244 20.5396 173.123 19.8442C174.064 19.0954 174.566 18.1326 174.566 17.0094C174.566 15.8861 174.064 14.9233 173.123 14.121C172.307 13.3722 171.115 12.9442 169.671 12.9442ZM202.614 25.1931C201.108 24.9256 199.54 24.7652 198.034 24.7652C194.332 24.7652 190.943 25.4605 188.119 26.8512C185.296 28.2419 183.037 30.1675 181.594 32.5745C180.088 35.0349 179.335 37.8698 179.335 41.1326C179.335 43.9675 180.088 46.4815 181.531 48.7815C182.974 51.028 184.982 52.8466 187.68 54.0768C190.253 55.307 193.265 55.9489 196.653 55.9489C200.544 55.9489 203.869 55.2535 206.505 53.9698L206.568 53.9163V47.4977L206.254 47.7117C205.062 48.4605 203.681 49.1024 202.301 49.4768C200.857 49.9047 199.54 50.1187 198.41 50.1187C195.147 50.1187 192.575 49.3163 190.755 47.5512C188.872 45.8396 187.931 43.4861 187.931 40.5442C187.931 37.4954 188.872 35.0884 190.818 33.3233C192.763 31.5582 195.336 30.6489 198.473 30.6489C201.108 30.6489 203.807 31.3977 206.254 32.8954L206.568 33.1094V26.3163L206.505 26.2628C205.438 25.8884 204.246 25.4605 202.614 25.1931ZM229.533 24.9791C227.525 24.9791 225.643 25.514 224.012 26.6373C222.631 27.6001 221.69 28.9908 220.874 30.6489H220.811V25.4605H212.654V55.0931H220.811V39.9559C220.811 37.3884 221.439 35.2489 222.819 33.6977C224.2 32.0931 225.957 31.2908 228.09 31.2908C228.843 31.2908 229.596 31.4512 230.537 31.5582C231.416 31.7722 232.043 31.9861 232.483 32.2535L232.796 32.4675V25.514L232.608 25.4605C232.043 25.1396 230.914 24.9791 229.533 24.9791ZM251.746 24.8187C246.036 24.8187 241.456 26.2629 238.255 29.0977C234.993 31.9326 233.424 35.8373 233.424 40.7582C233.424 45.3582 235.055 49.1024 238.193 51.8303C241.33 54.5047 245.597 55.8954 250.931 55.8954C256.515 55.8954 260.97 54.4512 264.17 51.5629C267.433 48.6745 269.002 44.8233 269.002 40.0629C269.002 35.3559 267.496 31.6117 264.421 28.8838C261.472 26.1559 257.143 24.8187 251.746 24.8187ZM258.272 47.6047C256.766 49.2629 254.382 50.0652 251.433 50.0652C248.483 50.0652 246.099 49.2629 244.405 47.4977C242.711 45.8396 241.895 43.4326 241.895 40.3838C241.895 37.228 242.773 34.821 244.405 33.1094C246.099 31.3977 248.421 30.5419 251.37 30.5419C254.256 30.5419 256.515 31.3442 258.147 33.0024C259.778 34.6605 260.657 37.0675 260.657 40.2233C260.531 43.4326 259.841 45.9466 258.272 47.6047ZM287.199 37.7628C284.626 36.8535 282.995 36.1582 282.242 35.5698C281.615 35.0349 281.301 34.2861 281.301 33.3233C281.301 32.521 281.677 31.7187 282.618 31.1838C283.56 30.6489 284.626 30.3815 286.195 30.3815C287.576 30.3815 289.019 30.5954 290.399 30.9163C291.78 31.2373 293.035 31.7187 294.039 32.3605L294.352 32.5745V26.0489L294.164 25.9954C293.223 25.6745 291.968 25.3535 290.462 25.0861C288.956 24.8722 287.576 24.7652 286.446 24.7652C282.556 24.7652 279.356 25.5675 276.846 27.3326C274.336 28.9908 273.143 31.2373 273.143 33.8582C273.143 35.2489 273.394 36.4791 273.959 37.4954C274.524 38.5117 275.34 39.4745 276.469 40.2768C277.599 41.0256 279.23 41.8815 281.489 42.6838C283.371 43.3791 284.815 43.914 285.693 44.3419C286.572 44.7698 287.136 45.2512 287.576 45.6256C287.889 46.0536 288.078 46.5884 288.078 47.2838C288.078 49.2629 286.321 50.2256 282.744 50.2256C281.364 50.2256 279.92 50.0117 278.226 49.5303C276.532 49.0489 274.963 48.3535 273.645 47.5512L273.332 47.3373V54.1303L273.52 54.1838C274.712 54.6652 276.155 54.9861 277.912 55.3605C279.669 55.628 281.238 55.8419 282.618 55.8419C286.823 55.8419 290.274 55.0396 292.721 53.2745C295.231 51.5629 296.549 49.3698 296.549 46.5349C296.549 44.5559 295.921 42.7908 294.541 41.4535C292.721 40.1698 290.462 38.8326 287.199 37.7628ZM318.071 24.8187C312.361 24.8187 307.781 26.2629 304.58 29.0977C301.38 31.9326 299.749 35.8373 299.749 40.7582C299.749 45.3582 301.38 49.1024 304.518 51.8303C307.655 54.5047 311.922 55.8954 317.256 55.8954C322.84 55.8954 327.295 54.4512 330.495 51.5629C333.758 48.6745 335.327 44.8233 335.327 40.0629C335.327 35.3559 333.821 31.6117 330.746 28.8838C327.797 26.1559 323.468 24.8187 318.071 24.8187ZM324.534 47.6047C323.028 49.2629 320.644 50.0652 317.695 50.0652C314.683 50.0652 312.361 49.2629 310.667 47.4977C308.973 45.8396 308.157 43.4326 308.157 40.3838C308.157 37.228 309.036 34.821 310.667 33.1094C312.361 31.3977 314.683 30.5419 317.632 30.5419C320.456 30.5419 322.777 31.3442 324.409 33.0024C326.04 34.6605 326.919 37.0675 326.919 40.2233C326.919 43.4326 326.103 45.9466 324.534 47.6047ZM378.937 31.1838V25.4605H370.717V16.6884L370.466 16.7419L362.685 18.721L362.497 18.7745V25.4605H350.198V21.7163C350.198 20.0047 350.7 18.6675 351.579 17.8117C352.457 16.9559 353.775 16.528 355.407 16.528C356.536 16.528 357.728 16.7419 359.046 17.2233L359.36 17.3838V11.3396L359.171 11.2861C358.042 10.9652 356.536 10.7512 354.591 10.7512C352.144 10.7512 350.01 11.2326 348.065 12.0349C346.12 12.9442 344.677 14.1745 343.61 15.8326C342.543 17.4373 341.978 19.2559 341.978 21.3419V25.4605H336.268V31.1303H341.978V55.0931H350.198V31.1838H362.497V46.428C362.497 52.6861 365.948 55.8419 372.851 55.8419C373.98 55.8419 375.172 55.6815 376.302 55.521C377.494 55.307 378.372 55.0396 378.874 54.8256L378.937 54.7722V49.0489L378.623 49.2628C378.121 49.5303 377.682 49.7442 376.929 49.9047C376.302 50.0652 375.737 50.1187 375.298 50.1187C373.666 50.1187 372.537 49.7977 371.721 48.9954C370.968 48.2466 370.592 47.0163 370.592 45.1977V31.1838H378.937Z" fill="white"/>
  <path d="M0 0H38.4647V32.7884H0V0Z" fill="white"/>
  <path d="M42.4803 0H80.9451V32.7884H42.4803V0Z" fill="white"/>
  <path d="M0 36.2117H38.4647V69H0V36.2117Z" fill="white"/>
  <path d="M42.4803 36.2117H80.9451V69H42.4803V36.2117Z" fill="white"/>
</svg>
