<svg width="18" height="18" viewBox="0 0 18 18" fill="none" xmlns="http://www.w3.org/2000/svg">
  <g clip-path="url(#clip0_2_480)">
    <path d="M17.2059 3.65499C16.566 3.93566 15.8843 4.1217 15.1734 4.21203C15.9047 3.77543 16.4628 3.08935 16.7252 2.26239C16.0434 2.66888 15.2907 2.956 14.4884 3.11623C13.8411 2.42692 12.9184 2 11.9118 2C9.95898 2 8.38679 3.58509 8.38679 5.52828C8.38679 5.80788 8.41045 6.07672 8.46852 6.33266C5.53599 6.18963 2.94113 4.78413 1.19796 2.64307C0.893631 3.17108 0.71512 3.77543 0.71512 4.42603C0.71512 5.64765 1.34421 6.73054 2.28193 7.35748C1.71521 7.34673 1.15925 7.1822 0.688235 6.92303C0.688235 6.93379 0.688235 6.94777 0.688235 6.96175C0.688235 8.67588 1.91093 10.0997 3.5143 10.4277C3.22718 10.5062 2.91425 10.5438 2.58949 10.5438C2.36366 10.5438 2.13568 10.5309 1.92168 10.4836C2.37871 11.8805 3.67561 12.9075 5.21768 12.9408C4.01757 13.8796 2.49378 14.4452 0.844164 14.4452C0.55489 14.4452 0.277445 14.4323 0 14.3968C1.56251 15.4045 3.41429 15.9798 5.41125 15.9798C11.9022 15.9798 15.4509 10.6029 15.4509 5.9423C15.4509 5.78637 15.4455 5.63582 15.438 5.48634C16.138 4.98952 16.7263 4.36904 17.2059 3.65499Z" fill="black"/>
  </g>
  <defs>
    <clipPath id="clip0_2_480">
      <rect width="17.2059" height="17.2059" fill="white" transform="translate(0.235291 0.558594)"/>
    </clipPath>
  </defs>
</svg>
