<svg width="24" height="18" viewBox="0 0 24 18" fill="none" xmlns="http://www.w3.org/2000/svg">
  <path d="M24 1C24 0.4475 23.5525 0 23 0H10V10H0V17C0 17.5525 0.4475 18 1 18H23C23.5525 18 24 17.5525 24 17V1Z" fill="#B41F30"/>
  <path d="M24 2H10V4H24V2Z" fill="#E6E6E6"/>
  <path d="M24 6H10V8H24V6Z" fill="#E6E6E6"/>
  <path d="M0 10V12H24V10H10H0Z" fill="#E6E6E6"/>
  <path d="M24 14H0V16H24V14Z" fill="#E6E6E6"/>
  <path d="M10 10H0V1C0 0.4475 0.4475 0 1 0H10V10Z" fill="#00256A"/>
  <path d="M5.00014 3.96094L4.68364 4.64494H3.93164L4.48164 5.21494L4.27864 6.03894L5.00014 5.62994L5.72164 6.03894L5.51864 5.21494L6.06864 4.64494H5.31564L5.00014 3.96094Z" fill="white"/>
  <path d="M2.55335 1.51465L2.23735 2.19865H1.48535L2.03485 2.76865L1.83185 3.59265L2.55335 3.18365L3.27535 3.59265L3.07185 2.76865L3.62185 2.19865H2.86885L2.55335 1.51465Z" fill="white"/>
  <path d="M7.44643 1.51465L7.76243 2.19865H8.51443L7.96493 2.76865L8.16793 3.59265L7.44643 3.18365L6.72443 3.59265L6.92793 2.76865L6.37793 2.19865H7.13093L7.44643 1.51465Z" fill="white"/>
  <path d="M2.55335 8.48571L2.23735 7.80171H1.48535L2.03485 7.23171L1.83185 6.40771L2.55335 6.81671L3.27535 6.40771L3.07185 7.23171L3.62185 7.80171H2.86885L2.55335 8.48571Z" fill="white"/>
  <path d="M7.44643 8.48571L7.76243 7.80171H8.51443L7.96493 7.23171L8.16793 6.40771L7.44643 6.81671L6.72443 6.40771L6.92793 7.23171L6.37793 7.80171H7.13093L7.44643 8.48571Z" fill="white"/>
</svg>
